# xmcd CD database file
#
# Track frame offsets:
#	182
#	11120
#	22095
#	38977
#	52632
#
# Disc length: 879 seconds
#
# Revision: 0
# Processed by: cddbd v1.5.2PL0 Copyright (c) Steve Scherf et al.
# Submitted via: CDex 1.51
#
DISCID=35036d05
DTITLE=francoise hardy - 1995 Francoise Hardy 67 72 (VIRGIN FR 1995)
DYEAR=1995
DGENRE=Blues
TTITLE0=Des ronds dans l'eau
TTITLE1=Soleil
TTITLE2=Comment te dire adieu
TTITLE3=La question
TTITLE4=Et si je m'en vais avant toi
EXTD=YEAR: 1995
EXTT0=
EXTT1=
EXTT2=
EXTT3=
EXTT4=
PLAYORDER=
